<svg width="139" height="32" viewBox="0 0 139 32" fill="none" xmlns="http://www.w3.org/2000/svg">
<path d="M6 22.2346C6 27.6267 10.4751 32 16 32C21.5217 32 26 27.6299 26 22.2346V17.6756C26 17.1245 25.5407 16.676 24.9764 16.676H7.02362C6.45932 16.676 6 17.1245 6 17.6756V22.2346Z" fill="url(#paint0_linear_858_5373)"/>
<path d="M16 0C10.4751 0 6 4.37005 6 9.76532V14.3244C6 14.8755 6.45932 15.324 7.02362 15.324H24.9731C25.5374 15.324 25.9967 14.8755 25.9967 14.3244V9.76532C25.9967 4.37005 21.5217 0 16 0Z" fill="url(#paint1_linear_858_5373)"/>
<path d="M21 3.28884C21 4.55294 18.7614 3.74661 16 3.74661C13.2386 3.74661 11 4.55294 11 3.28884C11 2.02475 13.2386 1 16 1C18.7614 1 21 2.02475 21 3.28884Z" fill="url(#paint2_linear_858_5373)" fill-opacity="0.4"/>
<path d="M11 28.7112C11 27.4471 13.2386 28.2534 16 28.2534C18.7614 28.2534 21 27.4471 21 28.7112C21 29.9753 18.7614 31 16 31C13.2386 31 11 29.9752 11 28.7112Z" fill="url(#paint3_linear_858_5373)" fill-opacity="0.4"/>
<g filter="url(#filter0_i_858_5373)">
<path d="M16.9771 14.2603C17.1411 14.052 17.4036 13.8149 17.7153 13.5522C18.7881 12.6519 20.4417 11.4537 20.7468 10.0248C20.7468 10.0152 20.7468 10.0056 20.7501 9.99275C20.7796 9.83577 20.7993 9.67557 20.8124 9.51538C20.8222 9.39043 20.8321 9.26548 20.8321 9.14053C20.8321 6.5326 18.6667 4.41806 15.9961 4.41806C13.3255 4.41806 11.1602 6.5326 11.1602 9.14053C11.1602 9.26868 11.1667 9.39043 11.1798 9.51538C11.193 9.67557 11.2126 9.83577 11.2422 9.99275C11.2422 10.0024 11.2422 10.012 11.2455 10.0248C11.5506 11.4569 13.2041 12.6519 14.277 13.5522C14.5854 13.8117 14.8511 14.0488 15.0151 14.2603C15.2973 14.6191 15.4384 14.994 15.504 15.324H16.4882C16.5539 14.9972 16.6949 14.6191 16.9771 14.2603Z" fill="white"/>
</g>
<path d="M16.0008 13.956C15.9384 13.8599 15.8728 13.7637 15.8006 13.674C15.571 13.3793 15.2429 13.0909 14.9247 12.8218C14.7934 12.7129 14.6524 12.5975 14.508 12.4758C13.9306 12.0016 13.2613 11.4538 12.7921 10.8835C12.4968 10.5246 12.6642 9.98 13.1202 9.85825C14.0552 9.61155 15.0165 9.4866 16.0008 9.4866C16.985 9.4866 17.9496 9.61155 18.8814 9.85825C19.3374 9.98 19.508 10.5246 19.2094 10.8835C18.7403 11.4506 18.071 11.9984 17.4936 12.4726C17.3492 12.5911 17.2081 12.7065 17.0769 12.8186C16.7587 13.0877 16.4306 13.3761 16.2009 13.6708C16.1287 13.7605 16.0631 13.8566 16.0008 13.9528V13.956Z" fill="#2886CE"/>
<g filter="url(#filter1_i_858_5373)">
<path d="M19.8845 25.6628C20.4685 24.881 20.836 23.9006 20.836 22.8594C20.836 22.5678 20.8065 22.2827 20.754 22.0072C20.754 21.9976 20.754 21.9879 20.7507 21.9751C20.4456 20.543 18.792 19.348 17.7192 18.4477C17.4108 18.1882 17.145 17.9511 16.981 17.7396C16.6988 17.3808 16.5578 17.006 16.4921 16.676H15.5079C15.4423 17.0028 15.3012 17.3808 15.019 17.7396C14.855 17.9479 14.5925 18.185 14.2809 18.4477C13.208 19.348 11.5545 20.5462 11.2494 21.9751C11.2494 21.9847 11.2494 21.9944 11.2461 22.0072C11.1936 22.2827 11.1641 22.5678 11.1641 22.8594C11.1641 23.9006 11.5118 24.8586 12.0958 25.6371L12.1057 25.6531C12.9849 26.829 14.3924 27.5819 16 27.5819C17.6076 27.5819 19.025 26.8129 19.9042 25.6371L19.8845 25.6628Z" fill="white"/>
</g>
<path d="M16.0134 26.6208C15.3212 26.6208 14.6552 26.4093 14.0449 26.0088C13.8678 25.8935 13.8776 25.4898 14.0646 25.4001C14.4714 25.2047 14.9668 24.9163 15.4426 24.4998C15.7936 24.1955 16.2201 24.2499 16.5679 24.5735C16.9813 24.958 17.4111 25.2335 17.8376 25.4225C18.0344 25.509 18.0344 25.9383 17.8376 26.0377C17.2995 26.31 16.5318 26.6176 16.0134 26.6176V26.6208Z" fill="#C8C8C8"/>
<path d="M17.9844 25.195C18.0205 25.2014 18.0598 25.2079 18.0959 25.2143C18.0598 25.2079 18.0205 25.1982 17.9844 25.195Z" fill="white"/>
<path d="M34.7102 10.9901V8.45455H46.6562V10.9901H42.2031V23H39.1634V10.9901H34.7102ZM48.5668 23V12.0909H51.5923V23H48.5668ZM50.0866 10.6847C49.6368 10.6847 49.2509 10.5355 48.929 10.2372C48.6117 9.93419 48.4531 9.57197 48.4531 9.15057C48.4531 8.7339 48.6117 8.37642 48.929 8.07812C49.2509 7.77509 49.6368 7.62358 50.0866 7.62358C50.5365 7.62358 50.92 7.77509 51.2372 8.07812C51.5592 8.37642 51.7202 8.7339 51.7202 9.15057C51.7202 9.57197 51.5592 9.93419 51.2372 10.2372C50.92 10.5355 50.5365 10.6847 50.0866 10.6847ZM54.016 23V12.0909H56.8995V14.0156H57.0273C57.2546 13.3764 57.6334 12.8722 58.1637 12.5028C58.694 12.1335 59.3285 11.9489 60.0671 11.9489C60.8152 11.9489 61.4521 12.1359 61.9776 12.5099C62.5032 12.8793 62.8536 13.3812 63.0288 14.0156H63.1424C63.3649 13.3906 63.7674 12.8911 64.3498 12.517C64.9369 12.1383 65.6306 11.9489 66.4308 11.9489C67.4487 11.9489 68.275 12.2732 68.9094 12.9219C69.5487 13.5658 69.8683 14.4796 69.8683 15.6634V23H66.8498V16.2599C66.8498 15.6539 66.6888 15.1993 66.3668 14.8963C66.0449 14.5933 65.6424 14.4418 65.1594 14.4418C64.6102 14.4418 64.1817 14.617 63.8739 14.9673C63.5662 15.313 63.4123 15.7699 63.4123 16.3381V23H60.479V16.196C60.479 15.661 60.3252 15.2348 60.0174 14.9176C59.7144 14.6004 59.3143 14.4418 58.8171 14.4418C58.4809 14.4418 58.1779 14.527 57.908 14.6974C57.6429 14.8632 57.4322 15.0975 57.2759 15.4006C57.1197 15.6989 57.0415 16.0492 57.0415 16.4517V23H54.016ZM77.2298 23.2131C76.1076 23.2131 75.1417 22.9858 74.332 22.5312C73.5271 22.072 72.9068 21.4233 72.4712 20.5852C72.0356 19.7424 71.8178 18.7457 71.8178 17.5952C71.8178 16.473 72.0356 15.4882 72.4712 14.6406C72.9068 13.7931 73.52 13.1326 74.3107 12.6591C75.1062 12.1856 76.0389 11.9489 77.109 11.9489C77.8287 11.9489 78.4987 12.0649 79.119 12.2969C79.744 12.5241 80.2885 12.8674 80.7525 13.3267C81.2212 13.786 81.5858 14.3636 81.8462 15.0597C82.1067 15.7509 82.2369 16.5606 82.2369 17.4886V18.3196H73.0252V16.4446H79.3888C79.3888 16.009 79.2942 15.6231 79.1048 15.2869C78.9154 14.9508 78.6526 14.688 78.3164 14.4986C77.985 14.3045 77.5991 14.2074 77.1587 14.2074C76.6995 14.2074 76.2923 14.3139 75.9371 14.527C75.5868 14.7353 75.3121 15.017 75.1133 15.3722C74.9144 15.7225 74.8126 16.1132 74.8079 16.544V18.3267C74.8079 18.8665 74.9073 19.3329 75.1062 19.7259C75.3098 20.1188 75.5962 20.4219 75.9656 20.6349C76.3349 20.848 76.7728 20.9545 77.2795 20.9545C77.6156 20.9545 77.9234 20.9072 78.2028 20.8125C78.4821 20.7178 78.7212 20.5758 78.9201 20.3864C79.119 20.197 79.2705 19.965 79.3746 19.6903L82.1729 19.875C82.0309 20.5473 81.7397 21.1345 81.2994 21.6364C80.8638 22.1335 80.3003 22.5218 79.609 22.8011C78.9225 23.0758 78.1294 23.2131 77.2298 23.2131ZM101.731 13.5469H98.62C98.5632 13.1444 98.4472 12.7869 98.272 12.4744C98.0968 12.1572 97.8719 11.8873 97.5973 11.6648C97.3227 11.4422 97.0054 11.2718 96.6456 11.1534C96.2905 11.035 95.9046 10.9759 95.4879 10.9759C94.7351 10.9759 94.0793 11.1629 93.5206 11.5369C92.9619 11.9062 92.5286 12.446 92.2209 13.1562C91.9131 13.8617 91.7592 14.7187 91.7592 15.7273C91.7592 16.7642 91.9131 17.6354 92.2209 18.3409C92.5334 19.0464 92.969 19.5791 93.5277 19.9389C94.0864 20.2988 94.7327 20.4787 95.4666 20.4787C95.8786 20.4787 96.2597 20.4242 96.6101 20.3153C96.9652 20.2064 97.2801 20.0478 97.5547 19.8395C97.8293 19.6264 98.0566 19.3684 98.2365 19.0653C98.4212 18.7623 98.549 18.4167 98.62 18.0284L101.731 18.0426C101.65 18.7102 101.449 19.3542 101.127 19.9744C100.81 20.59 100.381 21.1416 99.8416 21.6293C99.3066 22.1122 98.6674 22.4957 97.924 22.7798C97.1854 23.0592 96.3497 23.1989 95.4169 23.1989C94.1196 23.1989 92.9595 22.9053 91.9368 22.3182C90.9188 21.7311 90.1139 20.8812 89.522 19.7685C88.9349 18.6558 88.6413 17.3087 88.6413 15.7273C88.6413 14.1411 88.9396 12.7917 89.5362 11.679C90.1328 10.5663 90.9425 9.71875 91.9652 9.13636C92.9879 8.54924 94.1385 8.25568 95.4169 8.25568C96.2597 8.25568 97.041 8.37405 97.7607 8.6108C98.4851 8.84754 99.1267 9.19318 99.6854 9.64773C100.244 10.0975 100.699 10.6491 101.049 11.3026C101.404 11.956 101.631 12.7041 101.731 13.5469ZM106.99 23.206C106.294 23.206 105.674 23.0852 105.129 22.8438C104.585 22.5975 104.154 22.2353 103.837 21.7571C103.524 21.2741 103.368 20.6728 103.368 19.9531C103.368 19.3471 103.479 18.8381 103.702 18.4261C103.924 18.0142 104.227 17.6828 104.611 17.4318C104.994 17.1809 105.43 16.9915 105.918 16.8636C106.41 16.7358 106.926 16.6458 107.466 16.5938C108.1 16.5275 108.612 16.4659 109 16.4091C109.388 16.3475 109.67 16.2576 109.845 16.1392C110.02 16.0208 110.108 15.8456 110.108 15.6136V15.571C110.108 15.1212 109.966 14.7732 109.682 14.527C109.402 14.2808 109.005 14.1577 108.489 14.1577C107.944 14.1577 107.511 14.2784 107.189 14.5199C106.867 14.7566 106.654 15.0549 106.55 15.4148L103.751 15.1875C103.893 14.5246 104.173 13.9517 104.589 13.4688C105.006 12.9811 105.544 12.607 106.202 12.3466C106.865 12.0814 107.632 11.9489 108.503 11.9489C109.109 11.9489 109.689 12.0199 110.243 12.1619C110.802 12.304 111.296 12.5241 111.727 12.8224C112.163 13.1207 112.506 13.5043 112.757 13.973C113.008 14.437 113.134 14.9934 113.134 15.642V23H110.264V21.4872H110.179C110.004 21.8281 109.769 22.1288 109.476 22.3892C109.182 22.6449 108.83 22.8461 108.418 22.9929C108.006 23.1349 107.53 23.206 106.99 23.206ZM107.857 21.1179C108.302 21.1179 108.695 21.0303 109.036 20.8551C109.376 20.6752 109.644 20.4337 109.838 20.1307C110.032 19.8277 110.129 19.4844 110.129 19.1009V17.9432C110.035 18.0047 109.904 18.0616 109.739 18.1136C109.578 18.161 109.395 18.206 109.192 18.2486C108.988 18.2865 108.785 18.322 108.581 18.3551C108.377 18.3835 108.193 18.4096 108.027 18.4332C107.672 18.4853 107.362 18.5682 107.097 18.6818C106.831 18.7955 106.625 18.9493 106.479 19.1435C106.332 19.3329 106.259 19.5696 106.259 19.8537C106.259 20.2656 106.408 20.5805 106.706 20.7983C107.009 21.0114 107.393 21.1179 107.857 21.1179ZM115.481 27.0909V12.0909H118.464V13.9233H118.599C118.731 13.6297 118.923 13.3314 119.174 13.0284C119.43 12.7206 119.761 12.465 120.168 12.2614C120.58 12.053 121.092 11.9489 121.702 11.9489C122.498 11.9489 123.232 12.1572 123.904 12.5739C124.576 12.9858 125.114 13.6084 125.516 14.4418C125.919 15.2704 126.12 16.3097 126.12 17.5597C126.12 18.7765 125.924 19.804 125.531 20.642C125.142 21.4754 124.612 22.1075 123.94 22.5384C123.272 22.9645 122.524 23.1776 121.695 23.1776C121.108 23.1776 120.609 23.0805 120.197 22.8864C119.79 22.6922 119.456 22.4484 119.195 22.1548C118.935 21.8565 118.736 21.5559 118.599 21.2528H118.506V27.0909H115.481ZM118.442 17.5455C118.442 18.1941 118.532 18.7599 118.712 19.2429C118.892 19.7259 119.153 20.1023 119.494 20.3722C119.835 20.6373 120.249 20.7699 120.737 20.7699C121.229 20.7699 121.646 20.6349 121.987 20.3651C122.327 20.0904 122.585 19.7116 122.761 19.2287C122.941 18.741 123.031 18.1799 123.031 17.5455C123.031 16.9157 122.943 16.3617 122.768 15.8835C122.593 15.4053 122.335 15.0312 121.994 14.7614C121.653 14.4915 121.234 14.3565 120.737 14.3565C120.244 14.3565 119.827 14.4867 119.487 14.7472C119.15 15.0076 118.892 15.3769 118.712 15.8551C118.532 16.3333 118.442 16.8968 118.442 17.5455ZM137.214 15.2017L134.444 15.3722C134.397 15.1354 134.295 14.9223 134.138 14.733C133.982 14.5388 133.776 14.3849 133.521 14.2713C133.27 14.1529 132.969 14.0938 132.619 14.0938C132.15 14.0938 131.754 14.1932 131.433 14.392C131.111 14.5862 130.95 14.8466 130.95 15.1733C130.95 15.4337 131.054 15.6539 131.262 15.8338C131.47 16.0137 131.828 16.1581 132.335 16.267L134.309 16.6648C135.37 16.8826 136.16 17.233 136.681 17.7159C137.202 18.1989 137.462 18.8333 137.462 19.6193C137.462 20.3343 137.252 20.9616 136.83 21.5014C136.414 22.0412 135.841 22.4626 135.112 22.7656C134.387 23.0639 133.551 23.2131 132.604 23.2131C131.16 23.2131 130.01 22.9124 129.153 22.3111C128.3 21.705 127.801 20.8812 127.654 19.8395L130.63 19.6832C130.72 20.1236 130.938 20.4598 131.283 20.6918C131.629 20.919 132.072 21.0327 132.612 21.0327C133.142 21.0327 133.568 20.9309 133.89 20.7273C134.217 20.5189 134.382 20.2514 134.387 19.9247C134.382 19.6501 134.266 19.4252 134.039 19.25C133.812 19.0701 133.461 18.9328 132.988 18.8381L131.099 18.4616C130.033 18.2486 129.24 17.8793 128.719 17.3537C128.203 16.8281 127.945 16.1581 127.945 15.3438C127.945 14.643 128.135 14.0393 128.513 13.5327C128.897 13.026 129.434 12.6354 130.126 12.3608C130.822 12.0862 131.636 11.9489 132.569 11.9489C133.947 11.9489 135.031 12.2401 135.822 12.8224C136.617 13.4048 137.081 14.1979 137.214 15.2017Z" fill="#181D27"/>
<defs>
<filter id="filter0_i_858_5373" x="11.1602" y="4.41806" width="10.6719" height="11.9059" filterUnits="userSpaceOnUse" color-interpolation-filters="sRGB">
<feFlood flood-opacity="0" result="BackgroundImageFix"/>
<feBlend mode="normal" in="SourceGraphic" in2="BackgroundImageFix" result="shape"/>
<feColorMatrix in="SourceAlpha" type="matrix" values="0 0 0 0 0 0 0 0 0 0 0 0 0 0 0 0 0 0 127 0" result="hardAlpha"/>
<feOffset dx="1" dy="1"/>
<feGaussianBlur stdDeviation="0.5"/>
<feComposite in2="hardAlpha" operator="arithmetic" k2="-1" k3="1"/>
<feColorMatrix type="matrix" values="0 0 0 0 0.338412 0 0 0 0 0.628212 0 0 0 0 0.849824 0 0 0 0.2 0"/>
<feBlend mode="normal" in2="shape" result="effect1_innerShadow_858_5373"/>
</filter>
<filter id="filter1_i_858_5373" x="11.1641" y="16.676" width="10.6719" height="11.9059" filterUnits="userSpaceOnUse" color-interpolation-filters="sRGB">
<feFlood flood-opacity="0" result="BackgroundImageFix"/>
<feBlend mode="normal" in="SourceGraphic" in2="BackgroundImageFix" result="shape"/>
<feColorMatrix in="SourceAlpha" type="matrix" values="0 0 0 0 0 0 0 0 0 0 0 0 0 0 0 0 0 0 127 0" result="hardAlpha"/>
<feOffset dx="1" dy="1"/>
<feGaussianBlur stdDeviation="0.5"/>
<feComposite in2="hardAlpha" operator="arithmetic" k2="-1" k3="1"/>
<feColorMatrix type="matrix" values="0 0 0 0 0.752941 0 0 0 0 0.752941 0 0 0 0 0.752941 0 0 0 0.1 0"/>
<feBlend mode="normal" in2="shape" result="effect1_innerShadow_858_5373"/>
</filter>
<linearGradient id="paint0_linear_858_5373" x1="6" y1="17" x2="26" y2="32" gradientUnits="userSpaceOnUse">
<stop stop-color="#DCDCDC"/>
<stop offset="1" stop-color="#B9B9B9"/>
</linearGradient>
<linearGradient id="paint1_linear_858_5373" x1="6" y1="0" x2="26" y2="15.5" gradientUnits="userSpaceOnUse">
<stop stop-color="#2886CE"/>
<stop offset="1" stop-color="#A3CAE8"/>
</linearGradient>
<linearGradient id="paint2_linear_858_5373" x1="16" y1="1" x2="16" y2="4" gradientUnits="userSpaceOnUse">
<stop stop-color="white" stop-opacity="0.8"/>
<stop offset="1" stop-color="white" stop-opacity="0.1"/>
</linearGradient>
<linearGradient id="paint3_linear_858_5373" x1="16" y1="31" x2="16" y2="28" gradientUnits="userSpaceOnUse">
<stop stop-color="white" stop-opacity="0.8"/>
<stop offset="1" stop-color="white" stop-opacity="0.1"/>
</linearGradient>
</defs>
</svg>
