<svg width="155" height="32" viewBox="0 0 155 32" fill="none" xmlns="http://www.w3.org/2000/svg">
<path d="M6 22.2344C6 27.6265 10.4751 31.9998 16 31.9998C21.5217 31.9998 26 27.6297 26 22.2344V17.6754C26 17.1243 25.5407 16.6758 24.9764 16.6758H7.02362C6.45932 16.6758 6 17.1243 6 17.6754V22.2344Z" fill="url(#paint0_linear_97_16)"/>
<path d="M16 0C10.4751 0 6 4.37005 6 9.76532V14.3244C6 14.8755 6.45932 15.324 7.02362 15.324H24.9731C25.5374 15.324 25.9967 14.8755 25.9967 14.3244V9.76532C25.9967 4.37005 21.5217 0 16 0Z" fill="url(#paint1_linear_97_16)"/>
<path d="M21 3.28884C21 4.55294 18.7614 3.74661 16 3.74661C13.2386 3.74661 11 4.55294 11 3.28884C11 2.02475 13.2386 1 16 1C18.7614 1 21 2.02475 21 3.28884Z" fill="url(#paint2_linear_97_16)" fill-opacity="0.4"/>
<path d="M11 28.7112C11 27.4471 13.2386 28.2534 16 28.2534C18.7614 28.2534 21 27.4471 21 28.7112C21 29.9753 18.7614 31 16 31C13.2386 31 11 29.9752 11 28.7112Z" fill="url(#paint3_linear_97_16)" fill-opacity="0.4"/>
<g filter="url(#filter0_i_97_16)">
<path d="M16.9771 14.2602C17.1411 14.0519 17.4036 13.8148 17.7153 13.5521C18.7881 12.6518 20.4417 11.4536 20.7468 10.0247C20.7468 10.0151 20.7468 10.0055 20.7501 9.99266C20.7796 9.83568 20.7993 9.67548 20.8124 9.51529C20.8222 9.39034 20.8321 9.26539 20.8321 9.14044C20.8321 6.53251 18.6667 4.41797 15.9961 4.41797C13.3255 4.41797 11.1602 6.53251 11.1602 9.14044C11.1602 9.26859 11.1667 9.39034 11.1798 9.51529C11.193 9.67548 11.2126 9.83568 11.2422 9.99266C11.2422 10.0023 11.2422 10.0119 11.2455 10.0247C11.5506 11.4568 13.2041 12.6518 14.277 13.5521C14.5854 13.8116 14.8511 14.0487 15.0151 14.2602C15.2973 14.619 15.4384 14.9939 15.504 15.3239H16.4882C16.5539 14.9971 16.6949 14.619 16.9771 14.2602Z" fill="white"/>
</g>
<path d="M16.0008 13.9557C15.9384 13.8596 15.8728 13.7634 15.8006 13.6737C15.571 13.379 15.2429 13.0906 14.9247 12.8215C14.7934 12.7126 14.6524 12.5972 14.508 12.4755C13.9306 12.0013 13.2613 11.4535 12.7921 10.8832C12.4968 10.5243 12.6642 9.97973 13.1202 9.85798C14.0552 9.61128 15.0165 9.48633 16.0008 9.48633C16.985 9.48633 17.9496 9.61128 18.8814 9.85798C19.3374 9.97973 19.508 10.5243 19.2094 10.8832C18.7403 11.4503 18.071 11.9981 17.4936 12.4723C17.3492 12.5908 17.2081 12.7062 17.0769 12.8183C16.7587 13.0874 16.4306 13.3758 16.2009 13.6705C16.1287 13.7602 16.0631 13.8563 16.0008 13.9525V13.9557Z" fill="#2886CE"/>
<g filter="url(#filter1_i_97_16)">
<path d="M19.8845 25.6626C20.4685 24.8808 20.836 23.9004 20.836 22.8592C20.836 22.5676 20.8065 22.2825 20.754 22.007C20.754 21.9974 20.754 21.9877 20.7507 21.9749C20.4456 20.5428 18.792 19.3478 17.7192 18.4475C17.4108 18.188 17.145 17.9509 16.981 17.7394C16.6988 17.3806 16.5578 17.0058 16.4921 16.6758H15.5079C15.4423 17.0026 15.3012 17.3806 15.019 17.7394C14.855 17.9477 14.5925 18.1848 14.2809 18.4475C13.208 19.3478 11.5545 20.546 11.2494 21.9749C11.2494 21.9845 11.2494 21.9942 11.2461 22.007C11.1936 22.2825 11.1641 22.5676 11.1641 22.8592C11.1641 23.9004 11.5118 24.8584 12.0958 25.6369L12.1057 25.6529C12.9849 26.8288 14.3924 27.5817 16 27.5817C17.6076 27.5817 19.025 26.8127 19.9042 25.6369L19.8845 25.6626Z" fill="white"/>
</g>
<path d="M16.0134 26.6209C15.3212 26.6209 14.6552 26.4094 14.0449 26.0089C13.8678 25.8936 13.8776 25.4899 14.0646 25.4002C14.4714 25.2048 14.9668 24.9164 15.4426 24.4999C15.7936 24.1956 16.2201 24.25 16.5679 24.5736C16.9813 24.9581 17.4111 25.2336 17.8376 25.4226C18.0344 25.5091 18.0344 25.9384 17.8376 26.0378C17.2995 26.3101 16.5318 26.6177 16.0134 26.6177V26.6209Z" fill="#C8C8C8"/>
<path d="M17.9844 25.1953C18.0205 25.2017 18.0598 25.2082 18.0959 25.2146C18.0598 25.2082 18.0205 25.1985 17.9844 25.1953Z" fill="white"/>
<path d="M32.7102 11.4901V8.95455H44.6562V11.4901H40.2031V23.5H37.1634V11.4901H32.7102ZM48.1932 23.706C47.4972 23.706 46.8769 23.5852 46.3324 23.3438C45.7879 23.0975 45.357 22.7353 45.0398 22.2571C44.7273 21.7741 44.571 21.1728 44.571 20.4531C44.571 19.8471 44.6823 19.3381 44.9048 18.9261C45.1274 18.5142 45.4304 18.1828 45.8139 17.9318C46.1974 17.6809 46.633 17.4915 47.1207 17.3636C47.6132 17.2358 48.1293 17.1458 48.669 17.0938C49.3035 17.0275 49.8149 16.9659 50.2031 16.9091C50.5914 16.8475 50.8731 16.7576 51.0483 16.6392C51.2235 16.5208 51.3111 16.3456 51.3111 16.1136V16.071C51.3111 15.6212 51.169 15.2732 50.8849 15.027C50.6056 14.7808 50.2079 14.6577 49.6918 14.6577C49.1473 14.6577 48.714 14.7784 48.392 15.0199C48.0701 15.2566 47.857 15.5549 47.7528 15.9148L44.9545 15.6875C45.0966 15.0246 45.3759 14.4517 45.7926 13.9688C46.2093 13.4811 46.7467 13.107 47.4048 12.8466C48.0677 12.5814 48.8348 12.4489 49.706 12.4489C50.312 12.4489 50.892 12.5199 51.446 12.6619C52.0047 12.804 52.4995 13.0241 52.9304 13.3224C53.366 13.6207 53.7093 14.0043 53.9602 14.473C54.2112 14.937 54.3366 15.4934 54.3366 16.142V23.5H51.4673V21.9872H51.3821C51.2069 22.3281 50.9725 22.6288 50.679 22.8892C50.3854 23.1449 50.0327 23.3461 49.6207 23.4929C49.2088 23.6349 48.733 23.706 48.1932 23.706ZM49.0597 21.6179C49.5047 21.6179 49.8977 21.5303 50.2386 21.3551C50.5795 21.1752 50.8471 20.9337 51.0412 20.6307C51.2353 20.3277 51.3324 19.9844 51.3324 19.6009V18.4432C51.2377 18.5047 51.1075 18.5616 50.9418 18.6136C50.7808 18.661 50.5985 18.706 50.3949 18.7486C50.1913 18.7865 49.9877 18.822 49.7841 18.8551C49.5805 18.8835 49.3958 18.9096 49.2301 18.9332C48.875 18.9853 48.5649 19.0682 48.2997 19.1818C48.0346 19.2955 47.8286 19.4493 47.6818 19.6435C47.535 19.8329 47.4616 20.0696 47.4616 20.3537C47.4616 20.7656 47.6108 21.0805 47.9091 21.2983C48.2121 21.5114 48.5956 21.6179 49.0597 21.6179ZM59.7095 8.95455V23.5H56.6839V8.95455H59.7095ZM64.8746 20.3608L64.8817 16.7315H65.3221L68.8164 12.5909H72.2894L67.5948 18.0739H66.8775L64.8746 20.3608ZM62.1332 23.5V8.95455H65.1587V23.5H62.1332ZM68.9513 23.5L65.7411 18.7486L67.7582 16.6108L72.4954 23.5H68.9513ZM73.7738 23.5V12.5909H76.7994V23.5H73.7738ZM75.2937 11.1847C74.8439 11.1847 74.458 11.0355 74.136 10.7372C73.8188 10.4342 73.6602 10.072 73.6602 9.65057C73.6602 9.2339 73.8188 8.87642 74.136 8.57812C74.458 8.27509 74.8439 8.12358 75.2937 8.12358C75.7435 8.12358 76.127 8.27509 76.4442 8.57812C76.7662 8.87642 76.9272 9.2339 76.9272 9.65057C76.9272 10.072 76.7662 10.4342 76.4442 10.7372C76.127 11.0355 75.7435 11.1847 75.2937 11.1847ZM82.2486 17.1932V23.5H79.223V12.5909H82.1065V14.5156H82.2344C82.4759 13.8812 82.8807 13.3793 83.4489 13.0099C84.017 12.6359 84.706 12.4489 85.5156 12.4489C86.2732 12.4489 86.9337 12.6146 87.4972 12.946C88.0606 13.2775 88.4986 13.7509 88.8111 14.3665C89.1236 14.9773 89.2798 15.7064 89.2798 16.554V23.5H86.2543V17.0938C86.259 16.4261 86.0885 15.9053 85.7429 15.5312C85.3973 15.1525 84.9214 14.9631 84.3153 14.9631C83.9081 14.9631 83.5483 15.0507 83.2358 15.2259C82.928 15.401 82.6866 15.6567 82.5114 15.9929C82.3409 16.3243 82.2533 16.7244 82.2486 17.1932ZM96.5792 27.8182C95.5991 27.8182 94.7586 27.6832 94.0579 27.4134C93.3619 27.1482 92.8079 26.786 92.396 26.3267C91.984 25.8674 91.7165 25.3513 91.5934 24.7784L94.3917 24.402C94.4769 24.6198 94.6119 24.8234 94.7965 25.0128C94.9812 25.2022 95.225 25.3537 95.5281 25.4673C95.8358 25.5857 96.2099 25.6449 96.6502 25.6449C97.3084 25.6449 97.8505 25.4839 98.2766 25.1619C98.7075 24.8447 98.9229 24.312 98.9229 23.5639V21.5682H98.7951C98.6625 21.8712 98.4637 22.1577 98.1985 22.4276C97.9334 22.6974 97.5924 22.9176 97.1758 23.0881C96.7591 23.2585 96.262 23.3438 95.6843 23.3438C94.8652 23.3438 94.1194 23.1544 93.4471 22.7756C92.7795 22.392 92.2468 21.8073 91.8491 21.0213C91.4561 20.2306 91.2596 19.2315 91.2596 18.0241C91.2596 16.7884 91.4608 15.7562 91.8633 14.9276C92.2657 14.099 92.8008 13.4787 93.4684 13.0668C94.1407 12.6548 94.877 12.4489 95.6772 12.4489C96.288 12.4489 96.7994 12.553 97.2113 12.7614C97.6232 12.965 97.9547 13.2206 98.2056 13.5284C98.4613 13.8314 98.6578 14.1297 98.7951 14.4233H98.9087V12.5909H101.913V23.6065C101.913 24.5346 101.686 25.3111 101.231 25.9361C100.777 26.5611 100.147 27.0298 99.342 27.3423C98.5418 27.6596 97.6209 27.8182 96.5792 27.8182ZM96.6431 21.071C97.1308 21.071 97.5427 20.9503 97.8789 20.7088C98.2198 20.4626 98.4802 20.1122 98.6602 19.6577C98.8448 19.1984 98.9371 18.6491 98.9371 18.0099C98.9371 17.3707 98.8472 16.8168 98.6673 16.348C98.4873 15.8745 98.2269 15.5076 97.886 15.2472C97.5451 14.9867 97.1308 14.8565 96.6431 14.8565C96.146 14.8565 95.7269 14.9915 95.386 15.2614C95.0451 15.5265 94.7871 15.8958 94.6119 16.3693C94.4367 16.8428 94.3491 17.3897 94.3491 18.0099C94.3491 18.6397 94.4367 19.1842 94.6119 19.6435C94.7918 20.098 95.0498 20.4508 95.386 20.7017C95.7269 20.9479 96.146 21.071 96.6431 21.071Z" fill="#4BAEEB"/>
<path d="M104.377 23.5V8.95455H107.453V14.956H113.696V8.95455H116.764V23.5H113.696V17.4915H107.453V23.5H104.377ZM124.214 23.7131C123.092 23.7131 122.126 23.4858 121.316 23.0312C120.511 22.572 119.891 21.9233 119.456 21.0852C119.02 20.2424 118.802 19.2457 118.802 18.0952C118.802 16.973 119.02 15.9882 119.456 15.1406C119.891 14.2931 120.504 13.6326 121.295 13.1591C122.091 12.6856 123.023 12.4489 124.093 12.4489C124.813 12.4489 125.483 12.5649 126.103 12.7969C126.728 13.0241 127.273 13.3674 127.737 13.8267C128.206 14.286 128.57 14.8636 128.831 15.5597C129.091 16.2509 129.221 17.0606 129.221 17.9886V18.8196H120.01V16.9446H126.373C126.373 16.509 126.279 16.1231 126.089 15.7869C125.9 15.4508 125.637 15.188 125.301 14.9986C124.969 14.8045 124.583 14.7074 124.143 14.7074C123.684 14.7074 123.277 14.8139 122.922 15.027C122.571 15.2353 122.297 15.517 122.098 15.8722C121.899 16.2225 121.797 16.6132 121.792 17.044V18.8267C121.792 19.3665 121.892 19.8329 122.091 20.2259C122.294 20.6188 122.581 20.9219 122.95 21.1349C123.319 21.348 123.757 21.4545 124.264 21.4545C124.6 21.4545 124.908 21.4072 125.187 21.3125C125.467 21.2178 125.706 21.0758 125.904 20.8864C126.103 20.697 126.255 20.465 126.359 20.1903L129.157 20.375C129.015 21.0473 128.724 21.6345 128.284 22.1364C127.848 22.6335 127.285 23.0218 126.593 23.3011C125.907 23.5758 125.114 23.7131 124.214 23.7131ZM134.306 23.706C133.61 23.706 132.99 23.5852 132.446 23.3438C131.901 23.0975 131.47 22.7353 131.153 22.2571C130.841 21.7741 130.684 21.1728 130.684 20.4531C130.684 19.8471 130.796 19.3381 131.018 18.9261C131.241 18.5142 131.544 18.1828 131.927 17.9318C132.311 17.6809 132.746 17.4915 133.234 17.3636C133.726 17.2358 134.243 17.1458 134.782 17.0938C135.417 17.0275 135.928 16.9659 136.316 16.9091C136.705 16.8475 136.986 16.7576 137.162 16.6392C137.337 16.5208 137.424 16.3456 137.424 16.1136V16.071C137.424 15.6212 137.282 15.2732 136.998 15.027C136.719 14.7808 136.321 14.6577 135.805 14.6577C135.261 14.6577 134.827 14.7784 134.505 15.0199C134.183 15.2566 133.97 15.5549 133.866 15.9148L131.068 15.6875C131.21 15.0246 131.489 14.4517 131.906 13.9688C132.323 13.4811 132.86 13.107 133.518 12.8466C134.181 12.5814 134.948 12.4489 135.819 12.4489C136.425 12.4489 137.005 12.5199 137.559 12.6619C138.118 12.804 138.613 13.0241 139.044 13.3224C139.479 13.6207 139.823 14.0043 140.074 14.473C140.324 14.937 140.45 15.4934 140.45 16.142V23.5H137.581V21.9872H137.495C137.32 22.3281 137.086 22.6288 136.792 22.8892C136.499 23.1449 136.146 23.3461 135.734 23.4929C135.322 23.6349 134.846 23.706 134.306 23.706ZM135.173 21.6179C135.618 21.6179 136.011 21.5303 136.352 21.3551C136.693 21.1752 136.96 20.9337 137.154 20.6307C137.349 20.3277 137.446 19.9844 137.446 19.6009V18.4432C137.351 18.5047 137.221 18.5616 137.055 18.6136C136.894 18.661 136.712 18.706 136.508 18.7486C136.305 18.7865 136.101 18.822 135.897 18.8551C135.694 18.8835 135.509 18.9096 135.343 18.9332C134.988 18.9853 134.678 19.0682 134.413 19.1818C134.148 19.2955 133.942 19.4493 133.795 19.6435C133.648 19.8329 133.575 20.0696 133.575 20.3537C133.575 20.7656 133.724 21.0805 134.022 21.2983C134.325 21.5114 134.709 21.6179 135.173 21.6179ZM146.817 23.6776C145.989 23.6776 145.238 23.4645 144.566 23.0384C143.898 22.6075 143.368 21.9754 142.975 21.142C142.587 20.304 142.392 19.2765 142.392 18.0597C142.392 16.8097 142.594 15.7704 142.996 14.9418C143.399 14.1084 143.934 13.4858 144.601 13.0739C145.274 12.6572 146.01 12.4489 146.81 12.4489C147.421 12.4489 147.93 12.553 148.337 12.7614C148.749 12.965 149.08 13.2206 149.331 13.5284C149.587 13.8314 149.781 14.1297 149.914 14.4233H150.006V8.95455H153.025V23.5H150.042V21.7528H149.914C149.772 22.0559 149.57 22.3565 149.31 22.6548C149.054 22.9484 148.721 23.1922 148.309 23.3864C147.901 23.5805 147.404 23.6776 146.817 23.6776ZM147.776 21.2699C148.264 21.2699 148.676 21.1373 149.012 20.8722C149.353 20.6023 149.613 20.2259 149.793 19.7429C149.978 19.2599 150.07 18.6941 150.07 18.0455C150.07 17.3968 149.98 16.8333 149.8 16.3551C149.62 15.8769 149.36 15.5076 149.019 15.2472C148.678 14.9867 148.264 14.8565 147.776 14.8565C147.279 14.8565 146.86 14.9915 146.519 15.2614C146.178 15.5312 145.92 15.9053 145.745 16.3835C145.569 16.8617 145.482 17.4157 145.482 18.0455C145.482 18.6799 145.569 19.241 145.745 19.7287C145.925 20.2116 146.183 20.5904 146.519 20.8651C146.86 21.1349 147.279 21.2699 147.776 21.2699Z" fill="black"/>
<defs>
<filter id="filter0_i_97_16" x="11.1602" y="4.41797" width="10.6719" height="11.9062" filterUnits="userSpaceOnUse" color-interpolation-filters="sRGB">
<feFlood flood-opacity="0" result="BackgroundImageFix"/>
<feBlend mode="normal" in="SourceGraphic" in2="BackgroundImageFix" result="shape"/>
<feColorMatrix in="SourceAlpha" type="matrix" values="0 0 0 0 0 0 0 0 0 0 0 0 0 0 0 0 0 0 127 0" result="hardAlpha"/>
<feOffset dx="1" dy="1"/>
<feGaussianBlur stdDeviation="0.5"/>
<feComposite in2="hardAlpha" operator="arithmetic" k2="-1" k3="1"/>
<feColorMatrix type="matrix" values="0 0 0 0 0.338412 0 0 0 0 0.628212 0 0 0 0 0.849824 0 0 0 0.2 0"/>
<feBlend mode="normal" in2="shape" result="effect1_innerShadow_97_16"/>
</filter>
<filter id="filter1_i_97_16" x="11.1641" y="16.6758" width="10.6719" height="11.9062" filterUnits="userSpaceOnUse" color-interpolation-filters="sRGB">
<feFlood flood-opacity="0" result="BackgroundImageFix"/>
<feBlend mode="normal" in="SourceGraphic" in2="BackgroundImageFix" result="shape"/>
<feColorMatrix in="SourceAlpha" type="matrix" values="0 0 0 0 0 0 0 0 0 0 0 0 0 0 0 0 0 0 127 0" result="hardAlpha"/>
<feOffset dx="1" dy="1"/>
<feGaussianBlur stdDeviation="0.5"/>
<feComposite in2="hardAlpha" operator="arithmetic" k2="-1" k3="1"/>
<feColorMatrix type="matrix" values="0 0 0 0 0.752941 0 0 0 0 0.752941 0 0 0 0 0.752941 0 0 0 0.1 0"/>
<feBlend mode="normal" in2="shape" result="effect1_innerShadow_97_16"/>
</filter>
<linearGradient id="paint0_linear_97_16" x1="6" y1="16.9998" x2="26" y2="31.9998" gradientUnits="userSpaceOnUse">
<stop stop-color="#DCDCDC"/>
<stop offset="1" stop-color="#B9B9B9"/>
</linearGradient>
<linearGradient id="paint1_linear_97_16" x1="6" y1="0" x2="26" y2="15.5" gradientUnits="userSpaceOnUse">
<stop stop-color="#2886CE"/>
<stop offset="1" stop-color="#A3CAE8"/>
</linearGradient>
<linearGradient id="paint2_linear_97_16" x1="16" y1="1" x2="16" y2="4" gradientUnits="userSpaceOnUse">
<stop stop-color="white" stop-opacity="0.8"/>
<stop offset="1" stop-color="white" stop-opacity="0.1"/>
</linearGradient>
<linearGradient id="paint3_linear_97_16" x1="16" y1="31" x2="16" y2="28" gradientUnits="userSpaceOnUse">
<stop stop-color="white" stop-opacity="0.8"/>
<stop offset="1" stop-color="white" stop-opacity="0.1"/>
</linearGradient>
</defs>
</svg>
