<svg width="138" height="32" viewBox="0 0 138 32" fill="none" xmlns="http://www.w3.org/2000/svg">
<path d="M6 22.2347C6 27.6268 10.4751 32 16 32C21.5217 32 26 27.63 26 22.2347V17.6756C26 17.1246 25.5407 16.676 24.9764 16.676H7.02362C6.45932 16.676 6 17.1246 6 17.6756V22.2347Z" fill="white"/>
<path d="M16 0C10.4751 0 6 4.37005 6 9.76532V14.3244C6 14.8755 6.45932 15.324 7.02362 15.324H24.9731C25.5374 15.324 25.9967 14.8755 25.9967 14.3244V9.76532C25.9967 4.37005 21.5217 0 16 0Z" fill="white"/>
<path d="M16.9771 14.2602C17.1411 14.0519 17.4036 13.8148 17.7153 13.5521C18.7881 12.6519 20.4417 11.4536 20.7468 10.0247C20.7468 10.0151 20.7468 10.0055 20.7501 9.99266C20.7796 9.83567 20.7993 9.67548 20.8124 9.51529C20.8222 9.39034 20.8321 9.26539 20.8321 9.14044C20.8321 6.53251 18.6667 4.41797 15.9961 4.41797C13.3255 4.41797 11.1602 6.53251 11.1602 9.14044C11.1602 9.26859 11.1667 9.39034 11.1798 9.51529C11.193 9.67548 11.2126 9.83567 11.2422 9.99266C11.2422 10.0023 11.2422 10.0119 11.2455 10.0247C11.5506 11.4568 13.2041 12.6519 14.277 13.5521C14.5854 13.8116 14.8511 14.0487 15.0151 14.2602C15.2973 14.619 15.4384 14.9939 15.504 15.3239H16.4882C16.5539 14.9971 16.6949 14.619 16.9771 14.2602Z" fill="#181D27"/>
<path d="M16.0008 13.9559C15.9384 13.8598 15.8728 13.7637 15.8006 13.674C15.571 13.3792 15.2429 13.0909 14.9247 12.8218C14.7934 12.7128 14.6524 12.5975 14.508 12.4758C13.9306 12.0016 13.2613 11.4537 12.7921 10.8834C12.4968 10.5246 12.6642 9.97996 13.1202 9.85822C14.0552 9.61152 15.0165 9.48657 16.0008 9.48657C16.985 9.48657 17.9496 9.61152 18.8814 9.85822C19.3374 9.97996 19.508 10.5246 19.2094 10.8834C18.7403 11.4505 18.071 11.9984 17.4936 12.4726C17.3492 12.5911 17.2081 12.7064 17.0769 12.8186C16.7587 13.0877 16.4306 13.376 16.2009 13.6708C16.1287 13.7605 16.0631 13.8566 16.0008 13.9527V13.9559Z" fill="white"/>
<path d="M19.8845 25.6628C20.4685 24.8811 20.836 23.9007 20.836 22.8594C20.836 22.5679 20.8065 22.2828 20.754 22.0072C20.754 21.9976 20.754 21.988 20.7507 21.9752C20.4456 20.5431 18.792 19.348 17.7192 18.4478C17.4108 18.1882 17.145 17.9512 16.981 17.7397C16.6988 17.3809 16.5578 17.006 16.4921 16.676H15.5079C15.4423 17.0028 15.3012 17.3809 15.019 17.7397C14.855 17.948 14.5925 18.185 14.2809 18.4478C13.208 19.348 11.5545 20.5463 11.2494 21.9752C11.2494 21.9848 11.2494 21.9944 11.2461 22.0072C11.1936 22.2828 11.1641 22.5679 11.1641 22.8594C11.1641 23.9007 11.5118 24.8586 12.0958 25.6372L12.1057 25.6532C12.9849 26.829 14.3924 27.5819 16 27.5819C17.6076 27.5819 19.025 26.813 19.9042 25.6372L19.8845 25.6628Z" fill="#181D27"/>
<path d="M16.0134 26.6209C15.3212 26.6209 14.6552 26.4094 14.0449 26.0089C13.8678 25.8936 13.8776 25.4899 14.0646 25.4002C14.4714 25.2048 14.9668 24.9164 15.4426 24.4999C15.7936 24.1955 16.2201 24.25 16.5679 24.5736C16.9813 24.9581 17.4111 25.2336 17.8376 25.4226C18.0344 25.5091 18.0344 25.9384 17.8376 26.0378C17.2995 26.3101 16.5318 26.6177 16.0134 26.6177V26.6209Z" fill="white"/>
<path d="M17.9844 25.1951C18.0205 25.2015 18.0598 25.2079 18.0959 25.2143C18.0598 25.2079 18.0205 25.1983 17.9844 25.1951Z" fill="white"/>
<path d="M34.7955 10.6634V8.45455H46.4006V10.6634H41.9048V23H39.2912V10.6634H34.7955ZM48.5241 23V12.0909H51.0952V23H48.5241ZM49.8168 10.5426C49.4096 10.5426 49.0592 10.4077 48.7656 10.1378C48.4721 9.86316 48.3253 9.53409 48.3253 9.15057C48.3253 8.76231 48.4721 8.43324 48.7656 8.16335C49.0592 7.88873 49.4096 7.75142 49.8168 7.75142C50.2287 7.75142 50.5791 7.88873 50.8679 8.16335C51.1615 8.43324 51.3082 8.76231 51.3082 9.15057C51.3082 9.53409 51.1615 9.86316 50.8679 10.1378C50.5791 10.4077 50.2287 10.5426 49.8168 10.5426ZM53.739 23V12.0909H56.1964V13.9446H56.3242C56.5515 13.3196 56.9279 12.8319 57.4535 12.4815C57.979 12.1264 58.6064 11.9489 59.3356 11.9489C60.0742 11.9489 60.6969 12.1288 61.2035 12.4886C61.7148 12.8437 62.0747 13.3291 62.283 13.9446H62.3967C62.6381 13.3385 63.0453 12.8556 63.6183 12.4957C64.1959 12.1312 64.8801 11.9489 65.6708 11.9489C66.6746 11.9489 67.4937 12.2661 68.1282 12.9006C68.7627 13.535 69.0799 14.4607 69.0799 15.6776V23H66.5018V16.0753C66.5018 15.3982 66.3219 14.9034 65.962 14.5909C65.6022 14.2737 65.1618 14.1151 64.641 14.1151C64.0207 14.1151 63.5354 14.3092 63.185 14.6974C62.8394 15.081 62.6665 15.5805 62.6665 16.196V23H60.1452V15.9688C60.1452 15.4053 59.9748 14.9555 59.6339 14.6193C59.2977 14.2831 58.8574 14.1151 58.3129 14.1151C57.9435 14.1151 57.6074 14.2098 57.3043 14.3991C57.0013 14.5838 56.7598 14.8466 56.5799 15.1875C56.4 15.5237 56.31 15.9167 56.31 16.3665V23H53.739ZM76.5178 23.2131C75.424 23.2131 74.4794 22.9858 73.6839 22.5312C72.8932 22.072 72.2848 21.4233 71.8587 20.5852C71.4325 19.7424 71.2195 18.7505 71.2195 17.6094C71.2195 16.4872 71.4325 15.5024 71.8587 14.6548C72.2895 13.8026 72.8909 13.1397 73.6626 12.6662C74.4344 12.188 75.3411 11.9489 76.3828 11.9489C77.0552 11.9489 77.6896 12.0578 78.2862 12.2756C78.8875 12.4886 79.4179 12.8201 79.8771 13.2699C80.3411 13.7197 80.7057 14.2926 80.9709 14.9886C81.236 15.6799 81.3686 16.5038 81.3686 17.4602V18.2486H72.4268V16.5156H78.9041C78.8994 16.0232 78.7929 15.5852 78.5845 15.2017C78.3762 14.8134 78.085 14.508 77.7109 14.2855C77.3416 14.063 76.9107 13.9517 76.4183 13.9517C75.8928 13.9517 75.4311 14.0795 75.0334 14.3352C74.6357 14.5862 74.3255 14.9176 74.103 15.3295C73.8852 15.7367 73.7739 16.1842 73.7692 16.6719V18.1847C73.7692 18.8191 73.8852 19.3636 74.1172 19.8182C74.3492 20.268 74.6735 20.6136 75.0902 20.8551C75.5069 21.0919 75.9946 21.2102 76.5533 21.2102C76.9273 21.2102 77.2659 21.1581 77.5689 21.054C77.8719 20.9451 78.1347 20.7865 78.3572 20.5781C78.5798 20.3698 78.7479 20.1117 78.8615 19.804L81.2621 20.0739C81.1106 20.7083 80.8217 21.2623 80.3956 21.7358C79.9742 22.2045 79.4344 22.5691 78.7763 22.8295C78.1181 23.0852 77.3653 23.2131 76.5178 23.2131ZM101.069 13.3622H98.4123C98.3365 12.9266 98.1969 12.5407 97.9933 12.2045C97.7897 11.8636 97.5363 11.5748 97.2333 11.3381C96.9303 11.1013 96.5846 10.9238 96.1964 10.8054C95.8129 10.6823 95.3986 10.6207 94.9535 10.6207C94.1628 10.6207 93.462 10.8196 92.8512 11.2173C92.2404 11.6103 91.7622 12.188 91.4165 12.9503C91.0709 13.7079 90.8981 14.6335 90.8981 15.7273C90.8981 16.84 91.0709 17.7775 91.4165 18.5398C91.7669 19.2973 92.2451 19.8703 92.8512 20.2585C93.462 20.642 94.1604 20.8338 94.9464 20.8338C95.382 20.8338 95.7892 20.777 96.168 20.6634C96.5515 20.545 96.8948 20.3722 97.1978 20.1449C97.5056 19.9176 97.7636 19.6383 97.9719 19.3068C98.185 18.9754 98.3318 18.5966 98.4123 18.1705L101.069 18.1847C100.969 18.8759 100.754 19.5246 100.422 20.1307C100.096 20.7367 99.667 21.2718 99.1367 21.7358C98.6064 22.1951 97.9862 22.5549 97.2759 22.8153C96.5657 23.071 95.7773 23.1989 94.9109 23.1989C93.6325 23.1989 92.4914 22.9029 91.4876 22.3111C90.4838 21.7192 89.6931 20.8646 89.1154 19.7472C88.5378 18.6297 88.2489 17.2898 88.2489 15.7273C88.2489 14.16 88.5401 12.8201 89.1225 11.7074C89.7049 10.59 90.498 9.73532 91.5018 9.14347C92.5056 8.55161 93.6419 8.25568 94.9109 8.25568C95.7205 8.25568 96.4734 8.36932 97.1694 8.59659C97.8654 8.82386 98.4857 9.15767 99.0302 9.59801C99.5747 10.0336 100.022 10.5687 100.373 11.2031C100.728 11.8329 100.96 12.5526 101.069 13.3622ZM106.507 23.2202C105.816 23.2202 105.193 23.0971 104.639 22.8509C104.09 22.5999 103.654 22.2306 103.332 21.7429C103.015 21.2552 102.857 20.6539 102.857 19.9389C102.857 19.3234 102.97 18.8144 103.197 18.4119C103.425 18.0095 103.735 17.6875 104.128 17.446C104.521 17.2045 104.964 17.0223 105.456 16.8991C105.953 16.7713 106.467 16.679 106.997 16.6222C107.636 16.5559 108.155 16.4967 108.553 16.4446C108.95 16.3878 109.239 16.3026 109.419 16.1889C109.604 16.0705 109.696 15.8883 109.696 15.642V15.5994C109.696 15.0644 109.537 14.6501 109.22 14.3565C108.903 14.063 108.446 13.9162 107.849 13.9162C107.22 13.9162 106.72 14.0535 106.351 14.3281C105.986 14.6027 105.74 14.9271 105.612 15.3011L103.212 14.9602C103.401 14.2973 103.714 13.7434 104.149 13.2983C104.585 12.8485 105.117 12.5123 105.747 12.2898C106.377 12.0625 107.073 11.9489 107.835 11.9489C108.361 11.9489 108.884 12.0104 109.405 12.1335C109.926 12.2566 110.402 12.4602 110.832 12.7443C111.263 13.0237 111.609 13.4048 111.869 13.8878C112.134 14.3707 112.267 14.9744 112.267 15.6989V23H109.795V21.5014H109.71C109.554 21.8045 109.334 22.0885 109.05 22.3537C108.77 22.6141 108.418 22.8248 107.991 22.9858C107.57 23.142 107.075 23.2202 106.507 23.2202ZM107.175 21.331C107.691 21.331 108.138 21.2292 108.517 21.0256C108.896 20.8172 109.187 20.5426 109.391 20.2017C109.599 19.8608 109.703 19.4891 109.703 19.0866V17.8011C109.623 17.8674 109.485 17.929 109.291 17.9858C109.102 18.0426 108.889 18.0923 108.652 18.1349C108.415 18.1776 108.181 18.2154 107.949 18.2486C107.717 18.2817 107.516 18.3101 107.345 18.3338C106.962 18.3859 106.618 18.4711 106.315 18.5895C106.012 18.7079 105.773 18.8736 105.598 19.0866C105.423 19.295 105.335 19.5649 105.335 19.8963C105.335 20.3698 105.508 20.7273 105.854 20.9688C106.199 21.2102 106.64 21.331 107.175 21.331ZM114.852 27.0909V12.0909H117.381V13.8949H117.53C117.662 13.6297 117.849 13.348 118.091 13.0497C118.332 12.7467 118.659 12.4886 119.071 12.2756C119.483 12.0578 120.009 11.9489 120.648 11.9489C121.491 11.9489 122.25 12.1643 122.928 12.5952C123.609 13.0213 124.149 13.6534 124.547 14.4915C124.949 15.3248 125.151 16.3475 125.151 17.5597C125.151 18.7576 124.954 19.7756 124.561 20.6136C124.168 21.4517 123.633 22.0909 122.956 22.5312C122.279 22.9716 121.512 23.1918 120.655 23.1918C120.03 23.1918 119.511 23.0876 119.099 22.8793C118.688 22.6709 118.356 22.42 118.105 22.1264C117.859 21.8281 117.667 21.5464 117.53 21.2812H117.423V27.0909H114.852ZM117.374 17.5455C117.374 18.2509 117.473 18.8688 117.672 19.3991C117.875 19.9295 118.167 20.3437 118.545 20.642C118.929 20.9356 119.393 21.0824 119.938 21.0824C120.506 21.0824 120.982 20.9309 121.365 20.6278C121.749 20.3201 122.037 19.901 122.232 19.3707C122.43 18.8357 122.53 18.2273 122.53 17.5455C122.53 16.8684 122.433 16.267 122.239 15.7415C122.045 15.2159 121.756 14.804 121.372 14.5057C120.989 14.2074 120.51 14.0582 119.938 14.0582C119.388 14.0582 118.922 14.2027 118.538 14.4915C118.155 14.7803 117.864 15.1851 117.665 15.706C117.471 16.2268 117.374 16.84 117.374 17.5455ZM135.974 14.9744L133.631 15.2301C133.564 14.9934 133.448 14.7708 133.283 14.5625C133.122 14.3542 132.904 14.1861 132.629 14.0582C132.355 13.9304 132.018 13.8665 131.621 13.8665C131.086 13.8665 130.636 13.9825 130.271 14.2145C129.911 14.4465 129.734 14.7472 129.739 15.1165C129.734 15.4337 129.85 15.6918 130.087 15.8906C130.328 16.0895 130.726 16.2528 131.28 16.3807L133.141 16.7784C134.173 17.0009 134.94 17.3537 135.442 17.8366C135.948 18.3196 136.204 18.9517 136.209 19.733C136.204 20.4195 136.003 21.0256 135.605 21.5511C135.212 22.072 134.665 22.4792 133.964 22.7727C133.264 23.0663 132.459 23.2131 131.55 23.2131C130.214 23.2131 129.14 22.9337 128.325 22.375C127.511 21.8116 127.026 21.0279 126.869 20.0241L129.376 19.7827C129.49 20.2751 129.732 20.6468 130.101 20.8977C130.47 21.1487 130.951 21.2741 131.543 21.2741C132.153 21.2741 132.643 21.1487 133.013 20.8977C133.387 20.6468 133.574 20.3366 133.574 19.9673C133.574 19.6548 133.453 19.3968 133.212 19.1932C132.975 18.9896 132.606 18.8333 132.104 18.7244L130.243 18.3338C129.196 18.116 128.422 17.7491 127.92 17.233C127.419 16.7121 127.17 16.054 127.175 15.2585C127.17 14.5862 127.352 14.0038 127.722 13.5114C128.096 13.0142 128.614 12.6307 129.277 12.3608C129.945 12.0862 130.714 11.9489 131.585 11.9489C132.864 11.9489 133.87 12.2211 134.604 12.7656C135.342 13.3101 135.799 14.0464 135.974 14.9744Z" fill="white"/>
</svg>
