<svg width="59" height="59" viewBox="0 0 59 59" fill="none" xmlns="http://www.w3.org/2000/svg">
<path d="M1.45891 8.86014C0.823897 4.66582 4.30111 1.03824 8.4554 1.41204L8.85868 1.46038L28.3752 4.41656C29.0265 4.51517 29.6875 4.52712 30.3412 4.45315L30.6209 4.41656L50.1374 1.46038C54.3317 0.82539 57.9593 4.3026 57.5855 8.45687L57.5372 8.86014L54.581 28.3767C54.4824 29.0282 54.4697 29.6894 54.5437 30.3433L54.581 30.6223L57.5372 50.1389C58.1722 54.3332 54.695 57.9607 50.5407 57.587L50.1374 57.5386L30.6209 54.5825C29.9694 54.4838 29.3081 54.4711 28.6542 54.5452L28.3752 54.5825L8.85868 57.5386C4.66435 58.1737 1.03679 54.6964 1.41058 50.5422L1.45891 50.1389L4.41509 30.6223C4.5137 29.971 4.52565 29.3101 4.45169 28.6564L4.41509 28.3767L1.45891 8.86014Z" stroke="#ADB9C3" stroke-opacity="0.5"/>
</svg>
