<svg width="40" height="40" viewBox="0 0 40 40" fill="none" xmlns="http://www.w3.org/2000/svg">
<rect width="40" height="40" rx="8" fill="white"/>
<path d="M10 26.2346C10 31.6267 14.4751 36 20 36C25.5217 36 30 31.6299 30 26.2346V21.6756C30 21.1245 29.5407 20.676 28.9764 20.676H11.0236C10.4593 20.676 10 21.1245 10 21.6756V26.2346Z" fill="#B9B9B9"/>
<path d="M20 4C14.4751 4 10 8.37005 10 13.7653V18.3244C10 18.8755 10.4593 19.324 11.0236 19.324H28.9731C29.5374 19.324 29.9967 18.8755 29.9967 18.3244V13.7653C29.9967 8.37005 25.5217 4 20 4Z" fill="#2886CE"/>
<path d="M20.9771 18.2603C21.1411 18.052 21.4036 17.8149 21.7153 17.5522C22.7881 16.6519 24.4417 15.4537 24.7468 14.0248C24.7468 14.0152 24.7468 14.0056 24.7501 13.9928C24.7796 13.8358 24.7993 13.6756 24.8124 13.5154C24.8222 13.3904 24.8321 13.2655 24.8321 13.1405C24.8321 10.5326 22.6667 8.41806 19.9961 8.41806C17.3255 8.41806 15.1602 10.5326 15.1602 13.1405C15.1602 13.2687 15.1667 13.3904 15.1798 13.5154C15.193 13.6756 15.2126 13.8358 15.2422 13.9928C15.2422 14.0024 15.2422 14.012 15.2455 14.0248C15.5506 15.4569 17.2041 16.6519 18.277 17.5522C18.5854 17.8117 18.8511 18.0488 19.0151 18.2603C19.2973 18.6191 19.4384 18.994 19.504 19.324H20.4882C20.5539 18.9972 20.6949 18.6191 20.9771 18.2603Z" fill="white"/>
<path d="M19.9998 17.956C19.9375 17.8599 19.8719 17.7637 19.7997 17.674C19.57 17.3793 19.2419 17.0909 18.9237 16.8218C18.7925 16.7129 18.6514 16.5975 18.507 16.4758C17.9296 16.0016 17.2603 15.4538 16.7911 14.8835C16.4959 14.5246 16.6632 13.98 17.1192 13.8582C18.0543 13.6116 19.0156 13.4866 19.9998 13.4866C20.9841 13.4866 21.9486 13.6116 22.8804 13.8582C23.3364 13.98 23.507 14.5246 23.2085 14.8835C22.7393 15.4506 22.07 15.9984 21.4926 16.4726C21.3482 16.5911 21.2072 16.7065 21.0759 16.8186C20.7577 17.0877 20.4296 17.3761 20.1999 17.6708C20.1278 17.7605 20.0621 17.8566 19.9998 17.9528V17.956Z" fill="#2886CE"/>
<g filter="url(#filter0_i_1619_2289)">
<path d="M23.8836 29.6628C24.4675 28.881 24.835 27.9006 24.835 26.8594C24.835 26.5678 24.8055 26.2827 24.753 26.0072C24.753 25.9976 24.753 25.9879 24.7497 25.9751C24.4446 24.543 22.791 23.348 21.7182 22.4477C21.4098 22.1882 21.1441 21.9511 20.98 21.7396C20.6979 21.3808 20.5568 21.006 20.4912 20.676H19.5069C19.4413 21.0028 19.3002 21.3808 19.0181 21.7396C18.854 21.9479 18.5916 22.185 18.2799 22.4477C17.207 23.348 15.5535 24.5462 15.2484 25.9751C15.2484 25.9847 15.2484 25.9944 15.2451 26.0072C15.1926 26.2827 15.1631 26.5678 15.1631 26.8594C15.1631 27.9006 15.5109 28.8586 16.0948 29.6371L16.1047 29.6531C16.984 30.829 18.3914 31.5819 19.999 31.5819C21.6067 31.5819 23.024 30.8129 23.9032 29.6371L23.8836 29.6628Z" fill="white"/>
</g>
<path d="M20.0124 30.6208C19.3202 30.6208 18.6542 30.4093 18.0439 30.0088C17.8668 29.8935 17.8766 29.4898 18.0636 29.4001C18.4704 29.2047 18.9659 28.9163 19.4416 28.4998C19.7926 28.1955 20.2191 28.2499 20.5669 28.5735C20.9803 28.958 21.4101 29.2335 21.8366 29.4225C22.0334 29.509 22.0334 29.9383 21.8366 30.0377C21.2985 30.31 20.5308 30.6176 20.0124 30.6176V30.6208Z" fill="#C8C8C8"/>
<path d="M21.9854 29.195C22.0214 29.2014 22.0608 29.2079 22.0969 29.2143C22.0608 29.2079 22.0214 29.1982 21.9854 29.195Z" fill="white"/>
<defs>
<filter id="filter0_i_1619_2289" x="15.1631" y="20.676" width="10.6719" height="11.9059" filterUnits="userSpaceOnUse" color-interpolation-filters="sRGB">
<feFlood flood-opacity="0" result="BackgroundImageFix"/>
<feBlend mode="normal" in="SourceGraphic" in2="BackgroundImageFix" result="shape"/>
<feColorMatrix in="SourceAlpha" type="matrix" values="0 0 0 0 0 0 0 0 0 0 0 0 0 0 0 0 0 0 127 0" result="hardAlpha"/>
<feOffset dx="1" dy="1"/>
<feGaussianBlur stdDeviation="0.5"/>
<feComposite in2="hardAlpha" operator="arithmetic" k2="-1" k3="1"/>
<feColorMatrix type="matrix" values="0 0 0 0 0.752941 0 0 0 0 0.752941 0 0 0 0 0.752941 0 0 0 0.1 0"/>
<feBlend mode="normal" in2="shape" result="effect1_innerShadow_1619_2289"/>
</filter>
</defs>
</svg>
